<?xml version="1.0" encoding="UTF-8" standalone="no"?>
<svg
   xmlns:dc="http://purl.org/dc/elements/1.1/"
   xmlns:cc="http://creativecommons.org/ns#"
   xmlns:rdf="http://www.w3.org/1999/02/22-rdf-syntax-ns#"
   xmlns:svg="http://www.w3.org/2000/svg"
   xmlns="http://www.w3.org/2000/svg"
   xmlns:sodipodi="http://sodipodi.sourceforge.net/DTD/sodipodi-0.dtd"
   xmlns:inkscape="http://www.inkscape.org/namespaces/inkscape"
   version="1.1"
   id="图层_1"
   x="0px"
   y="0px"
   viewBox="0 0 1051 261"
   style="enable-background:new 0 0 1051 261;"
   xml:space="preserve"
   sodipodi:docname="viawallet_explorer.svg"
   inkscape:version="1.0.1 (0767f8302a, 2020-10-17)"><metadata
   id="metadata188"><rdf:RDF><cc:Work
       rdf:about=""><dc:format>image/svg+xml</dc:format><dc:type
         rdf:resource="http://purl.org/dc/dcmitype/StillImage" /><dc:title></dc:title></cc:Work></rdf:RDF></metadata><defs
   id="defs186" /><sodipodi:namedview
   pagecolor="#ffffff"
   bordercolor="#666666"
   borderopacity="1"
   objecttolerance="10"
   gridtolerance="10"
   guidetolerance="10"
   inkscape:pageopacity="0"
   inkscape:pageshadow="2"
   inkscape:window-width="1458"
   inkscape:window-height="667"
   id="namedview184"
   showgrid="false"
   inkscape:pagecheckerboard="true"
   inkscape:zoom="2.4205519"
   inkscape:cx="1039.2811"
   inkscape:cy="127.6081"
   inkscape:window-x="67"
   inkscape:window-y="27"
   inkscape:window-maximized="0"
   inkscape:current-layer="图层_1" />
<style
   type="text/css"
   id="style136">
	.st0{fill:#21EA72;}
	.st1{fill:#405CFF;}
	.st2{fill:#FFFFFF;}
</style>
<path
   class="st0"
   d="M76.6,191.9h-1.7c-12.1,0-17.2-1.1-17-8.7c0.1-3.6,1.2-10.5,3.3-19.5l1.1-4.9c0.5-2.2,0.9-4.1,1.1-5.9l0,0  l4.2-20.6l0,0c0.4-1.3,0.8-2.8,1-4.4l3.6-17.4c3-14,5-18.1,16.8-18.1h8.2l3.2-15.4H89.1c-6.9,0-14.6,0.3-20.9,4.2S58.5,92.1,56,104  l-4.9,23.9c-1.1,5.2-2.5,6.4-8.8,6.4H33l-3,15.6h9.3c4.1,0,6,0.6,5.9,4.9c-0.1,2.8-0.9,7.2-2.5,14.1l-0.2,0.7  c-1.4,5.5-2.2,11.2-2.4,17c-0.3,15.5,8.4,20.7,28.6,20.7h37.5l3-15.3L76.6,191.9z"
   id="path138" />
<path
   class="st1"
   d="M165.3,92.2h1.7c12.1,0,17.2,1.1,17,8.8c-0.1,3.6-1.2,10.5-3.3,19.5l-1.1,4.9c-0.5,2.2-0.9,4.1-1,5.9l0,0  l-4.2,20.7l0,0c-0.4,1.3-0.8,2.8-1,4.4l-3.6,17.4c-3,14-5,18.1-16.8,18.1h-8.2l-3.4,15.3h11.4c6.9,0,14.6-0.3,20.9-4.2  c6.4-4,9.7-11,12.2-22.9l4.9-23.9c1.1-5.2,2.5-6.4,8.8-6.4h9.3l3.1-15.6h-9.3c-4.1,0-6-0.6-5.9-4.9c0.1-2.8,0.9-7.2,2.5-14.1  l0.2-0.7c1.4-5.5,2.2-11.2,2.4-17c0.3-15.5-8.3-20.7-28.7-20.7h-37.5l-3.1,15.3L165.3,92.2L165.3,92.2z"
   id="path140" />
<polygon
   class="st2"
   points="337.4,125.8 319.9,125.8 319,129.9 319,129.9 304.2,192 321.7,192 336.4,129.9 336.4,129.9 "
   id="polygon142"
   style="fill:#a0a0a0;stroke:none" />
<polygon
   class="st0"
   points="325.9,101 343.3,101 339.4,117.3 321.9,117.1 "
   id="polygon144" />
<polygon
   class="st2"
   points="761,127.2 750.1,127.2 754.2,110.4 737.1,110.4 733.1,127.2 723,127.2 719.9,139.8 730.1,139.8   723.6,167.3 741.1,167.3 747.6,139.8 757.9,139.8 "
   id="polygon146"
   style="fill:#313154;fill-opacity:1" />
<path
   class="st2"
   d="M318.8,101h-18.7l-33.8,63.6l-2.8,7v-7l-3.4-63.6h-16.6l5.6,91h21.4C287,161.1,302.4,131.9,318.8,101L318.8,101  z"
   id="path148"
   style="fill:#a0a0a0;stroke:none" />
<path
   class="st2"
   d="M378.8,125.9c-25,0-43.5,19.1-44,44.1c-0.3,13.7,6.2,23.4,20.7,23.4c7.1,0,12.3-2.5,17.9-7l-1,5.6H389l15-63  C395.6,127.3,387.3,125.9,378.8,125.9z M378.8,162.4c-1.9,8.1-8.6,16.8-17.6,16.8c-7.1,0-9.7-5.4-9.5-11.8  c0.3-13.3,8.6-27.1,23.3-27.1c3,0.1,6,0.5,9.1,0.9L378.8,162.4z"
   id="path150"
   style="fill:#313154;fill-opacity:1" />
<path
   class="st2"
   d="M520.1,101l-33,63.6l-2.7,7v-7l-3.3-63.5c0,0,0-0.1,0.1-0.2H463l-33,63.6l-2.7,7v-7l-3.3-63.6h-16.2l5.4,91  h20.9c11-21.3,21.6-41.8,32.4-62.8l3.7,62.8h20.9c15.9-30.9,31-60.1,47-91L520.1,101z"
   id="path152"
   style="fill:#313154;fill-opacity:1" />
<path
   id="Shape_3_"
   class="st2"
   d="M587,129c-8.2-1.7-16.5-3.1-25-3.1c-25,0-43.5,19.1-44,44.1c-0.3,13.7,6.2,23.4,20.7,23.4  c7.1,0,12.2-2.5,17.9-7l-1.1,5.6h16.7L587,129L587,129z M567.4,141l-5.2,21.3c-1.9,8.1-8.6,16.8-17.6,16.8c-7.1,0-9.7-5.4-9.5-11.8  c0.3-13.3,8.6-27.1,23.3-27.1C561.3,140.2,564.2,140.6,567.4,141L567.4,141z"
   style="fill:#313154;fill-opacity:1" />
<path
   id="Shape-2_3_"
   class="st2"
   d="M602.3,191.9h-17.4l21.5-91h17.4L602.3,191.9L602.3,191.9z"
   style="fill:#313154;fill-opacity:1" />
<path
   id="Shape-3_3_"
   class="st2"
   d="M633.5,191.9H616l21.5-91H655L633.5,191.9z"
   style="fill:#313154;fill-opacity:1" />
<path
   class="st2"
   d="M711,135.4c-3.9-7.1-11.1-10.7-21.6-10.7c-9.2-0.2-18.1,3.3-24.8,9.7c-7,6.3-11.9,14.6-13.9,23.8  c-2.5,10.7-1.4,19,3.1,25c4.2,5.8,11.1,8.8,20.6,8.8c8.2,0.1,16.3-2.5,23-7.3c3.8-2.8,7-6.2,9.6-10.1h-21.7  c-2.6,2.1-5.8,3.2-9.1,3.2c-7.1,0-9.7-5.4-9.5-11.8c0-0.6,0-1.2,0.1-1.8h45.1C714,157.4,716.3,145.4,711,135.4z M670.8,150.5  c3.9-6.7,10.4-11.5,19-11.5h0.1c4.1,0.2,7.3,3.6,7.1,7.7c0,0.6-0.1,1-0.2,1.5l-0.6,2.3H670.8L670.8,150.5z"
   id="path157"
   style="fill:#313154;fill-opacity:1" />
<polygon
   class="st1"
   points="721.6,176.2 739,176.2 735.3,192.1 717.8,192.1 "
   id="polygon159" />
<circle
   class="st0"
   cx="121.1"
   cy="127.6"
   r="8"
   id="circle161" />
<circle
   class="st0"
   cx="120.2"
   cy="157.2"
   r="8"
   id="circle163" />
<g
   id="g181">
	<path
   class="st2"
   d="M827.4,73.2v5.2h-22.8v11.7H826v5.3h-21.5v12.8h23.8v5.3h-29.9V73.2H827.4z"
   id="path165"
   style="fill:#313154;fill-opacity:1" />
	<path
   class="st2"
   d="M839.2,84.4l6.4,9.3l6.4-9.3h7L848.9,98l11.3,15.5h-7l-7.6-11.1l-7.7,11.1h-7.1L842.3,98l-10.1-13.7   L839.2,84.4L839.2,84.4z"
   id="path167"
   style="fill:#313154;fill-opacity:1" />
	<path
   class="st2"
   d="M888.7,88.1c2.3,2.8,3.4,6.4,3.4,11c0,4.3-1.1,7.8-3.3,10.7c-2.4,3-5.7,4.6-9.9,4.6c-3.6,0-6.5-1.7-8.9-5.1   v15.5h-6V84.4h5.6v3.5c2-2.9,5.1-4.3,9-4.3C882.9,83.6,886.2,85.1,888.7,88.1z M871.6,91.5c-1.2,1.8-1.9,4.2-1.9,7.2v0.5   c0,3.1,0.7,5.6,2.3,7.6c1.4,1.8,3.2,2.7,5.4,2.7c2.9,0,5.1-1,6.5-2.9c1.2-1.8,1.9-4.3,1.9-7.5s-0.6-5.7-1.8-7.5   c-1.4-2.1-3.6-3.2-6.5-3.2C875.1,88.4,873.1,89.4,871.6,91.5z"
   id="path169"
   style="fill:#313154;fill-opacity:1" />
	<path
   class="st2"
   d="M904.4,72.5v41.1h-6V72.5H904.4z"
   id="path171"
   style="fill:#313154;fill-opacity:1" />
	<path
   class="st2"
   d="M935.9,88c2.6,2.9,4,6.5,4,11c0,4.4-1.3,8.1-3.9,10.9c-2.7,2.9-6.3,4.5-10.7,4.5s-8-1.5-10.7-4.5   c-2.6-2.8-3.9-6.5-3.9-10.9c0-4.5,1.3-8.1,4-11s6.2-4.4,10.6-4.4S933.2,85,935.9,88z M918.8,91.8c-1.4,1.9-2,4.3-2,7.2   s0.6,5.3,2,7.2c1.5,2.1,3.7,3.3,6.4,3.3s4.9-1.1,6.5-3.3c1.4-1.9,2-4.3,2-7.2c0-2.9-0.7-5.4-2-7.2c-1.6-2.2-3.7-3.3-6.5-3.3   S920.4,89.6,918.8,91.8z"
   id="path173"
   style="fill:#313154;fill-opacity:1" />
	<path
   class="st2"
   d="M962.9,84.3v6c-1.5-0.5-2.9-0.6-4.2-0.6c-1.8,0-3.4,0.7-4.9,2.2c-1.5,1.6-2.3,3.7-2.3,6.2v15.5h-6V84.4h6v4.4   c0.7-1.6,1.7-2.8,2.8-3.6c1.4-1.1,2.9-1.6,4.7-1.6C960.6,83.6,961.9,83.8,962.9,84.3z"
   id="path175"
   style="fill:#313154;fill-opacity:1" />
	<path
   class="st2"
   d="M989.8,88.4c2.3,2.9,3.4,7,3.5,12.2h-22.1c0.2,2.8,1,5,2.3,6.5c1.4,1.5,3.2,2.3,5.6,2.3c2.1,0,3.8-0.5,5.1-1.5   c1-0.8,1.9-2.1,2.7-3.8h6c-0.7,2.7-2,5-4,6.8c-2.5,2.2-5.8,3.3-9.7,3.3c-4.3,0-7.7-1.4-10.2-4c-2.7-2.8-4.1-6.6-4.1-11.4   c0-4.3,1.2-8,3.8-10.9c2.5-3,5.9-4.5,10.2-4.5C983.7,83.6,987.3,85.2,989.8,88.4z M973.7,90.5c-1.2,1.3-2.1,3.2-2.4,5.6H987   c-0.6-5.1-3.2-7.6-8-7.6C976.8,88.5,975.1,89.1,973.7,90.5z"
   id="path177"
   style="fill:#313154;fill-opacity:1" />
	<path
   class="st2"
   d="M1015.7,84.3v6c-1.5-0.5-2.9-0.6-4.2-0.6c-1.8,0-3.4,0.7-4.9,2.2c-1.5,1.6-2.3,3.7-2.3,6.2v15.5h-6V84.4h6v4.4   c0.7-1.6,1.7-2.8,2.8-3.6c1.4-1.1,2.9-1.6,4.7-1.6C1013.4,83.6,1014.7,83.8,1015.7,84.3z"
   id="path179"
   style="fill:#313154;fill-opacity:1" />
</g>
<path
   style="fill:#313154;stroke:none;stroke-width:0.826258;fill-opacity:1"
   d="m 249.1924,185.65271 c -0.27785,-3.06748 -1.42396,-21.19351 -2.5469,-40.28007 -1.12295,-19.08656 -2.25317,-36.84077 -2.51161,-39.45381 l -0.46988,-4.75098 h 7.85304 7.85304 l 0.40931,2.68533 c 0.55983,3.67286 3.00864,54.12819 2.98758,61.55621 -0.0166,5.85078 0.98306,7.85078 2.06491,4.13129 0.2974,-1.02249 8.40945,-16.81529 18.02678,-35.0951 l 17.48606,-33.23603 8.91283,-0.0208 8.91283,-0.0208 -6.02093,11.39679 c -3.31151,6.26824 -14.01497,26.52022 -23.78547,45.0044 l -17.76454,33.60759 -10.45093,0.0267 -10.45093,0.0267 z"
   id="path316" /><path
   style="fill:#313154;fill-opacity:1;stroke-width:0.826258"
   d="m 305.30228,190.12315 c 0,-0.60873 3.34634,-15.0873 7.43632,-32.17459 4.08998,-17.08729 7.43632,-31.27596 7.43632,-31.53039 0,-0.25442 3.76153,-0.46259 8.35895,-0.46259 7.54958,0 8.32348,0.14001 7.99269,1.44595 -0.20144,0.79528 -3.66616,15.48201 -7.69939,32.63719 l -7.33314,31.19123 h -8.09587 c -6.21446,0 -8.09588,-0.25721 -8.09588,-1.1068 z"
   id="path1702" /></svg>
