<?xml version="1.0" encoding="UTF-8"?>
<svg width="179px" height="32px" viewBox="0 0 179 32" version="1.1" xmlns="http://www.w3.org/2000/svg" xmlns:xlink="http://www.w3.org/1999/xlink">
    <!-- Generator: Sketch 63.1 (92452) - https://sketch.com -->
    <title>ViaWallet logo White</title>
    <desc>Created with Sketch.</desc>
    <g id="页面-1" stroke="none" stroke-width="1" fill="none" fill-rule="evenodd">
        <g id="ViaWallet-首页" transform="translate(-371.000000, -34.000000)">
            <g id="导航栏">
                <g id="编组-20">
                    <g id="ViaWallet-logo-White" transform="translate(371.000000, 34.000000)">
                        <g>
                            <path d="M11.3972656,28.1927007 L10.9777344,28.1927007 C8.01770833,28.1927007 6.75911458,27.9124088 6.80572917,26.0671533 C6.82903646,25.179562 7.10872396,23.4978102 7.62148437,21.2788321 L7.90117188,20.0875912 C8.01770833,19.550365 8.1109375,19.0832117 8.18085938,18.6394161 L8.18085938,18.6394161 L9.20638021,13.5941606 L9.20638021,13.5941606 C9.29960938,13.2671533 9.39283854,12.9167883 9.46276042,12.519708 L10.3484375,8.24525547 C11.0709635,4.81167883 11.583724,3.80729927 14.4505208,3.80729927 L16.4549479,3.80729927 L17.2473958,0.0233576642 L14.4505208,0.0233576642 C12.7723958,0.0233576642 10.8845052,0.0934306569 9.34622396,1.05109489 C7.80794271,2.00875912 6.96888021,3.73722628 6.36289062,6.65693431 L5.17421875,12.519708 C4.89453125,13.8043796 4.56822917,14.0846715 3.02994792,14.0846715 L0.745833333,14.0846715 L0,17.9153285 L2.28411458,17.9153285 C3.28632812,17.9153285 3.75247396,18.0554745 3.72916667,19.1065693 C3.70585937,19.7839416 3.51940104,20.8817518 3.12317708,22.5635036 L3.0765625,22.7270073 C2.72695313,24.0817518 2.54049479,25.4832117 2.49388021,26.8846715 C2.42395833,30.6919708 4.54492187,31.9532847 9.48606771,31.9532847 L18.6691406,31.9532847 L19.414974,28.1927007 L11.3972656,28.1927007 Z" id="路径" fill="#21EA72" fill-rule="nonzero"></path>
                            <path d="M33.0963542,3.76058394 L33.5158854,3.76058394 C36.4759115,3.76058394 37.7345052,4.04087591 37.6878906,5.90948905 C37.6645833,6.79708029 37.3848958,8.47883212 36.8721354,10.6978102 L36.5924479,11.8890511 C36.4759115,12.4262774 36.3826823,12.8934307 36.3360677,13.3372263 L36.3360677,13.3372263 L35.3105469,18.4058394 L35.3105469,18.4058394 C35.2173177,18.7328467 35.1240885,19.0832117 35.0541667,19.480292 L34.1684896,23.7547445 C33.4459635,27.1883212 32.9332031,28.1927007 30.0664063,28.1927007 L28.0619792,28.1927007 L27.2229167,31.9532847 L30.0197917,31.9532847 C31.6979167,31.9532847 33.5858073,31.8832117 35.1240885,30.9255474 C36.6856771,29.9445255 37.5014323,28.2394161 38.1074219,25.319708 L39.2960938,19.4569343 C39.5757813,18.1722628 39.9020833,17.8919708 41.4403646,17.8919708 L43.7244792,17.8919708 L44.4936198,14.0613139 L42.2095052,14.0613139 C41.2072917,14.0613139 40.7411458,13.9211679 40.7644531,12.870073 C40.7877604,12.1927007 40.9742188,11.0948905 41.3704427,9.41313869 L41.4170573,9.24963504 C41.7666667,7.89489051 41.953125,6.49343066 41.9997396,5.06861314 C42.0696615,1.26131387 39.9720052,0 34.9842448,0 L25.8011719,0 L25.0320313,3.76058394 L33.0963542,3.76058394 Z" id="路径" fill="#405CFF" fill-rule="nonzero"></path>
                            <line x1="25.5914063" y1="16.1167883" x2="25.5914063" y2="16.0233577" id="路径"></line>
                            <polygon id="路径" fill="#313154" fill-rule="nonzero" points="75.2126302 11.9824818 70.9473958 11.9824818 70.7143229 13.010219 70.7143229 13.010219 67.1016927 28.2394161 71.3669271 28.2394161 74.9795573 13.010219 74.9795573 13.010219"></polygon>
                            <polygon id="路径" fill="#21EA72" fill-rule="nonzero" points="72.3924479 5.90948905 76.6576823 5.90948905 75.7020833 9.90364964 71.436849 9.85693431"></polygon>
                            <polygon id="路径" fill="#313154" fill-rule="nonzero" points="178.883464 12.3328467 176.226432 12.3328467 177.228646 8.22189781 173.033333 8.22189781 172.054427 12.3328467 169.583854 12.3328467 168.814714 15.4160584 171.331901 15.4160584 169.723698 22.1664234 174.01224 22.1664234 175.597135 15.4160584 178.114323 15.4160584"></polygon>
                            <path d="M70.6677083,5.90948905 L66.0994792,5.90948905 L57.8253906,21.5124088 L57.1494792,23.2175182 L57.1494792,21.5124088 L56.3104167,5.90948905 L52.2549479,5.90948905 L53.6300781,28.2160584 L58.8742188,28.2160584 C62.8830729,20.6481752 66.6588542,13.4773723 70.6677083,5.90948905 L70.6677083,5.90948905 Z" id="路径" fill="#313154" fill-rule="nonzero"></path>
                            <path d="M85.3513021,12.0058394 C79.2447917,12.0058394 74.6998698,16.7007299 74.5833333,22.820438 C74.5134115,26.1839416 76.0983073,28.5664234 79.6410156,28.5664234 C81.3890625,28.5664234 82.6476563,27.9591241 84.0227865,26.8613139 L83.7664063,28.2394161 L87.8451823,28.2394161 L91.5044271,12.7766423 C89.4533854,12.3562044 87.425651,12.0058394 85.3513021,12.0058394 Z M85.3513021,20.9751825 C84.8851563,22.9605839 83.2536458,25.0861314 81.0394531,25.0861314 C79.2914063,25.0861314 78.6621094,23.7547445 78.708724,22.189781 C78.7786458,18.919708 80.8063802,15.5328467 84.4190104,15.5328467 C85.1648438,15.5562044 85.8873698,15.649635 86.6565104,15.7430657 L85.3513021,20.9751825 Z" id="形状" fill="#313154" fill-rule="nonzero"></path>
                            <path d="M119.939323,5.90948905 L111.875,21.5124088 L111.222396,23.2175182 L111.222396,21.5124088 L110.406641,5.93284672 C110.406641,5.93284672 110.406641,5.90948905 110.429948,5.88613139 L105.978255,5.88613139 L97.9139323,21.4890511 L97.2613281,23.1941606 L97.2613281,21.4890511 L96.4455729,5.88613139 L92.4833333,5.88613139 L93.811849,28.1927007 L98.9161458,28.1927007 C101.596484,22.9605839 104.206901,17.9386861 106.840625,12.8 L107.749609,28.1927007 L112.853906,28.1927007 C116.746224,20.6248175 120.452083,13.4540146 124.344401,5.88613139 L119.939323,5.90948905 Z" id="路径" fill="#313154" fill-rule="nonzero"></path>
                            <path d="M136.301042,12.7766423 C134.296615,12.3562044 132.26888,12.0058394 130.194531,12.0058394 C124.088021,12.0058394 119.543099,16.7007299 119.426562,22.820438 C119.356641,26.1839416 120.941536,28.5664234 124.484245,28.5664234 C126.232292,28.5664234 127.467578,27.9591241 128.866016,26.8613139 L128.586328,28.2394161 L132.665104,28.2394161 L136.301042,12.7766423 L136.301042,12.7766423 Z M131.49974,15.719708 L130.217839,20.9518248 C129.751693,22.9372263 128.120182,25.0627737 125.90599,25.0627737 C124.157943,25.0627737 123.528646,23.7313869 123.57526,22.1664234 C123.645182,18.8963504 125.672917,15.5094891 129.285547,15.5094891 C130.008073,15.5328467 130.730599,15.6262774 131.49974,15.719708 L131.49974,15.719708 Z" id="Shape" fill="#313154" fill-rule="nonzero"></path>
                            <polygon id="Shape-2" fill="#313154" fill-rule="nonzero" points="140.053516 28.2160584 135.788281 28.2160584 141.055729 5.90948905 145.320964 5.90948905"></polygon>
                            <polygon id="Shape-3" fill="#313154" fill-rule="nonzero" points="147.675 28.2160584 143.409766 28.2160584 148.677214 5.90948905 152.942448 5.90948905"></polygon>
                            <path d="M166.647135,14.6218978 C165.691536,12.870073 163.920182,12.0058394 161.35638,12.0058394 C159.095573,11.9591241 156.927995,12.8233577 155.296484,14.3883212 C153.571745,15.929927 152.383073,17.9620438 151.89362,20.2277372 C151.28763,22.8437956 151.54401,24.8759124 152.66276,26.3474453 C153.688281,27.7722628 155.389714,28.4963504 157.697135,28.4963504 C159.701563,28.519708 161.682682,27.8890511 163.314193,26.6978102 C164.246484,26.020438 165.038932,25.179562 165.668229,24.2218978 L160.354167,24.2218978 C159.72487,24.7357664 158.932422,25.0160584 158.116667,25.0160584 C156.36862,25.0160584 155.739323,23.6846715 155.785938,22.119708 C155.785938,21.979562 155.785938,21.8160584 155.809245,21.6759124 L166.856901,21.6759124 C167.392969,20.0175182 167.952344,17.0744526 166.647135,14.6218978 Z M156.811458,18.3357664 C157.767057,16.7007299 159.351953,15.5094891 161.472917,15.5094891 L161.496224,15.5094891 C162.498438,15.5562044 163.290885,16.3970803 163.244271,17.4014599 C163.244271,17.5416058 163.220964,17.6583942 163.197656,17.7751825 L163.057813,18.3357664 L156.811458,18.3357664 L156.811458,18.3357664 Z" id="形状" fill="#313154" fill-rule="nonzero"></path>
                            <polygon id="路径" fill="#405CFF" fill-rule="nonzero" points="169.234245 24.3620438 173.499479 24.3620438 172.590495 28.2627737 168.301953 28.2627737"></polygon>
                            <ellipse id="椭圆形" fill="#21EA72" fill-rule="nonzero" cx="22.2817708" cy="12.4262774" rx="1.9578125" ry="1.9620438"></ellipse>
                            <ellipse id="椭圆形" fill="#21EA72" fill-rule="nonzero" cx="22.0720052" cy="19.6905109" rx="1.9578125" ry="1.9620438"></ellipse>
                        </g>
                    </g>
                </g>
            </g>
        </g>
    </g>
</svg>